<svg width="129" height="40" viewBox="0 0 129 40" fill="none" xmlns="http://www.w3.org/2000/svg">
<path d="M67.547 10.05C67.547 11.4915 66.3858 12.6527 64.9444 12.6527C63.5029 12.6527 62.3418 11.4915 62.3418 10.05C62.3418 8.60861 63.4629 7.44745 64.9444 7.44745C66.4258 7.48749 67.547 8.64865 67.547 10.05ZM56.8162 15.2953C56.8162 15.5355 56.8162 15.9359 56.8162 15.9359C56.8162 15.9359 55.575 14.3343 52.9324 14.3343C48.568 14.3343 45.1646 17.6577 45.1646 22.2623C45.1646 26.8268 48.5279 30.1902 52.9324 30.1902C55.615 30.1902 56.8162 28.5485 56.8162 28.5485V29.2292C56.8162 29.5495 57.0565 29.7898 57.3768 29.7898H60.62V14.7347C60.62 14.7347 57.6571 14.7347 57.3768 14.7347C57.0565 14.7347 56.8162 15.015 56.8162 15.2953ZM56.8162 24.9449C56.2156 25.8258 55.0144 26.5866 53.573 26.5866C51.0104 26.5866 49.0485 24.985 49.0485 22.2623C49.0485 19.5395 51.0104 17.9379 53.573 17.9379C54.9744 17.9379 56.2557 18.7387 56.8162 19.5796V24.9449ZM63.0224 14.7347H66.8663V29.7898H63.0224V14.7347ZM120.44 14.3343C117.797 14.3343 116.556 15.9359 116.556 15.9359V7.48749H112.712V29.7898C112.712 29.7898 115.675 29.7898 115.955 29.7898C116.276 29.7898 116.516 29.5095 116.516 29.2292V28.5485C116.516 28.5485 117.757 30.1902 120.4 30.1902C124.764 30.1902 128.168 26.8268 128.168 22.2623C128.168 17.6977 124.764 14.3343 120.44 14.3343ZM119.799 26.5465C118.318 26.5465 117.157 25.7858 116.556 24.9049V19.5395C117.157 18.7387 118.438 17.8979 119.799 17.8979C122.362 17.8979 124.324 19.4995 124.324 22.2222C124.324 24.9449 122.362 26.5465 119.799 26.5465ZM110.71 20.8609V29.8298H106.866V21.3013C106.866 18.8188 106.065 17.8178 103.903 17.8178C102.742 17.8178 101.541 18.4184 100.78 19.2993V29.7898H96.9363V14.7347H99.9794C100.3 14.7347 100.54 15.015 100.54 15.2953V15.9359C101.661 14.7748 103.143 14.3343 104.624 14.3343C106.306 14.3343 107.707 14.8148 108.828 15.7758C110.19 16.8969 110.71 18.3383 110.71 20.8609ZM87.607 14.3343C84.9644 14.3343 83.7231 15.9359 83.7231 15.9359V7.48749H79.8793V29.7898C79.8793 29.7898 82.8423 29.7898 83.1225 29.7898C83.4429 29.7898 83.6831 29.5095 83.6831 29.2292V28.5485C83.6831 28.5485 84.9243 30.1902 87.567 30.1902C91.9313 30.1902 95.3347 26.8268 95.3347 22.2623C95.3748 17.6977 91.9714 14.3343 87.607 14.3343ZM86.9664 26.5465C85.4849 26.5465 84.3237 25.7858 83.7231 24.9049V19.5395C84.3237 18.7387 85.605 17.8979 86.9664 17.8979C89.5289 17.8979 91.4909 19.4995 91.4909 22.2222C91.4909 24.9449 89.5289 26.5465 86.9664 26.5465ZM76.556 14.3343C77.7171 14.3343 78.3177 14.5345 78.3177 14.5345V18.0981C78.3177 18.0981 75.1145 17.017 73.1125 19.2993V29.8298H69.2687V14.7347C69.2687 14.7347 72.2317 14.7347 72.5119 14.7347C72.8322 14.7347 73.0725 15.015 73.0725 15.2953V15.9359C73.7932 15.0951 75.3548 14.3343 76.556 14.3343ZM36.6361 28.4284C36.4359 27.9479 36.2357 27.4274 36.0355 26.987C35.7151 26.2663 35.3948 25.5856 35.1145 24.9449L35.0745 24.9049C32.3117 18.8989 29.3488 12.8128 26.2257 6.80681L26.1055 6.56657C25.7852 5.96597 25.4649 5.32533 25.1446 4.68468C24.7442 3.96396 24.3438 3.2032 23.7031 2.48248C22.4218 0.880881 20.58 0 18.618 0C16.616 0 14.8142 0.880881 13.4929 2.4024C12.8923 3.12312 12.4519 3.88388 12.0515 4.6046C11.7312 5.24525 11.4108 5.88589 11.0905 6.48649L10.9704 6.72673C7.88732 12.7327 4.88431 18.8188 2.12155 24.8248L2.08151 24.9049C1.80123 25.5455 1.48091 26.2262 1.16059 26.9469C0.960391 27.3874 0.760191 27.8679 0.559991 28.3884C0.0394705 29.8699 -0.12069 31.2713 0.0795105 32.7127C0.519951 35.7157 2.52195 38.2382 5.28471 39.3594C6.32576 39.7998 7.40684 40 8.52796 40C8.84828 40 9.24868 39.96 9.569 39.9199C10.8903 39.7598 12.2517 39.3193 13.573 38.5586C15.2146 37.6376 16.7762 36.3163 18.538 34.3944C20.2997 36.3163 21.9013 37.6376 23.5029 38.5586C24.8243 39.3193 26.1856 39.7598 27.5069 39.9199C27.8272 39.96 28.2277 40 28.548 40C29.6691 40 30.7902 39.7998 31.7912 39.3594C34.594 38.2382 36.556 35.6757 36.9964 32.7127C37.3167 31.3113 37.1566 29.9099 36.6361 28.4284ZM18.578 30.5105C16.4158 27.7878 15.0144 25.2252 14.534 23.0631C14.3338 22.1421 14.2937 21.3413 14.4138 20.6206C14.4939 19.98 14.7342 19.4194 15.0545 18.9389C15.8152 17.8579 17.0965 17.1772 18.578 17.1772C20.0595 17.1772 21.3808 17.8178 22.1015 18.9389C22.4218 19.4194 22.6621 19.98 22.7422 20.6206C22.8623 21.3413 22.8222 22.1822 22.622 23.0631C22.1416 25.1852 20.7402 27.7477 18.578 30.5105ZM34.554 32.3924C34.2737 34.4745 32.8723 36.2763 30.9103 37.0771C29.9494 37.4775 28.9083 37.5976 27.8673 37.4775C26.8663 37.3574 25.8653 37.037 24.8243 36.4364C23.3828 35.6356 21.9414 34.3944 20.2597 32.5526C22.9023 29.3093 24.5039 26.3463 25.1045 23.7037C25.3848 22.4625 25.4249 21.3413 25.3047 20.3003C25.1446 19.2993 24.7842 18.3784 24.2236 17.5776C22.9824 15.7758 20.9003 14.7347 18.578 14.7347C16.2557 14.7347 14.1736 15.8158 12.9324 17.5776C12.3718 18.3784 12.0114 19.2993 11.8513 20.3003C11.6911 21.3413 11.7312 22.5025 12.0515 23.7037C12.6521 26.3463 14.2937 29.3493 16.8963 32.5926C15.2547 34.4344 13.7732 35.6757 12.3318 36.4765C11.2907 37.0771 10.2897 37.3974 9.28872 37.5175C8.20764 37.6376 7.1666 37.4775 6.24568 37.1171C4.28371 36.3163 2.88231 34.5145 2.60203 32.4324C2.48191 31.4314 2.56199 30.4304 2.96239 29.3093C3.08251 28.9089 3.28271 28.5085 3.48291 28.028C3.76319 27.3874 4.08351 26.7067 4.40383 26.026L4.44387 25.9459C7.20664 19.98 10.1696 13.8939 13.2527 7.96797L13.3728 7.72773C13.6931 7.12713 14.0134 6.48649 14.3338 5.88589C14.6541 5.24524 15.0144 4.64464 15.4549 4.12412C16.2957 3.16316 17.4168 2.64264 18.6581 2.64264C19.8993 2.64264 21.0204 3.16316 21.8613 4.12412C22.3017 4.64464 22.6621 5.24524 22.9824 5.88589C23.3027 6.48649 23.623 7.12713 23.9434 7.72773L24.0635 7.96797C27.1065 13.9339 30.0695 20.02 32.8323 25.986V26.026C33.1526 26.6667 33.4329 27.3874 33.7532 28.028C33.9534 28.5085 34.1536 28.9089 34.2737 29.3093C34.594 30.3503 34.7141 31.3514 34.554 32.3924Z" fill="#1D2939"/>
</svg>
