<svg width="56" height="56" viewBox="0 0 56 56" fill="none" xmlns="http://www.w3.org/2000/svg">
<rect width="56" height="56" rx="28" fill="white"/>
<path d="M30 32C30 33.77 29.23 35.37 28 36.46C26.94 37.42 25.54 38 24 38C20.69 38 18 35.31 18 32C18 29.24 19.88 26.9 22.42 26.21C23.11 27.95 24.59 29.29 26.42 29.79C26.92 29.93 27.45 30 28 30C28.55 30 29.08 29.93 29.58 29.79C29.85 30.47 30 31.22 30 32Z" stroke="#FF601F" stroke-width="1.5" stroke-linecap="round" stroke-linejoin="round"/>
<path d="M34 24C34 24.78 33.85 25.53 33.58 26.21C32.89 27.95 31.41 29.29 29.58 29.79C29.08 29.93 28.55 30 28 30C27.45 30 26.92 29.93 26.42 29.79C24.59 29.29 23.11 27.95 22.42 26.21C22.15 25.53 22 24.78 22 24C22 20.69 24.69 18 28 18C31.31 18 34 20.69 34 24Z" stroke="#FF601F" stroke-width="1.5" stroke-linecap="round" stroke-linejoin="round"/>
<path d="M38 32C38 35.31 35.31 38 32 38C30.46 38 29.06 37.42 28 36.46C29.23 35.37 30 33.77 30 32C30 31.22 29.85 30.47 29.58 29.79C31.41 29.29 32.89 27.95 33.58 26.21C36.12 26.9 38 29.24 38 32Z" stroke="#FF601F" stroke-width="1.5" stroke-linecap="round" stroke-linejoin="round"/>
</svg>
