<svg width="56" height="56" viewBox="0 0 56 56" fill="none" xmlns="http://www.w3.org/2000/svg">
<rect width="56" height="56" rx="28" fill="white"/>
<path d="M27.9998 30H28.9998C30.0998 30 30.9998 29.1 30.9998 28V18H21.9998C20.4998 18 19.1898 18.83 18.5098 20.05" stroke="#FF601F" stroke-width="1.5" stroke-linecap="round" stroke-linejoin="round"/>
<path d="M18 33C18 34.66 19.34 36 21 36H22C22 34.9 22.9 34 24 34C25.1 34 26 34.9 26 36H30C30 34.9 30.9 34 32 34C33.1 34 34 34.9 34 36H35C36.66 36 38 34.66 38 33V30H35C34.45 30 34 29.55 34 29V26C34 25.45 34.45 25 35 25H36.29L34.58 22.01C34.22 21.39 33.56 21 32.84 21H31V28C31 29.1 30.1 30 29 30H28" stroke="#FF601F" stroke-width="1.5" stroke-linecap="round" stroke-linejoin="round"/>
<path d="M24 38C25.1046 38 26 37.1046 26 36C26 34.8954 25.1046 34 24 34C22.8954 34 22 34.8954 22 36C22 37.1046 22.8954 38 24 38Z" stroke="#FF601F" stroke-width="1.5" stroke-linecap="round" stroke-linejoin="round"/>
<path d="M32 38C33.1046 38 34 37.1046 34 36C34 34.8954 33.1046 34 32 34C30.8954 34 30 34.8954 30 36C30 37.1046 30.8954 38 32 38Z" stroke="#FF601F" stroke-width="1.5" stroke-linecap="round" stroke-linejoin="round"/>
<path d="M38 28V30H35C34.45 30 34 29.55 34 29V26C34 25.45 34.45 25 35 25H36.29L38 28Z" stroke="#FF601F" stroke-width="1.5" stroke-linecap="round" stroke-linejoin="round"/>
<path d="M18 24H24" stroke="#FF601F" stroke-width="1.5" stroke-linecap="round" stroke-linejoin="round"/>
<path d="M18 27H22" stroke="#FF601F" stroke-width="1.5" stroke-linecap="round" stroke-linejoin="round"/>
<path d="M18 30H20" stroke="#FF601F" stroke-width="1.5" stroke-linecap="round" stroke-linejoin="round"/>
</svg>
