<svg width="143" height="48" viewBox="0 0 143 48" fill="none" xmlns="http://www.w3.org/2000/svg">
<path d="M53.2123 12.7715H45.3371C44.7982 12.7715 44.3399 13.163 44.2559 13.695L41.0708 33.8891C41.0074 34.2875 41.316 34.6468 41.7202 34.6468H45.4799C46.0188 34.6468 46.4771 34.2553 46.5612 33.7222L47.4202 28.2755C47.5031 27.7423 47.9626 27.3508 48.5003 27.3508H50.9934C56.1809 27.3508 59.1749 24.8405 59.9568 19.866C60.3091 17.6896 59.9717 15.9796 58.9526 14.782C57.8334 13.467 55.8482 12.7715 53.2123 12.7715ZM54.1209 20.1469C53.6902 22.9728 51.5311 22.9728 49.4434 22.9728H48.2551L49.0888 17.6954C49.1383 17.3764 49.4146 17.1415 49.7371 17.1415H50.2817C51.7039 17.1415 53.0454 17.1415 53.7386 17.9522C54.152 18.4358 54.2786 19.1543 54.1209 20.1469Z" fill="#1D2939"/>
<path d="M76.7529 20.056H72.9817C72.6605 20.056 72.3829 20.2909 72.3334 20.6098L72.1665 21.6646L71.9028 21.2823C71.0863 20.0974 69.2658 19.7013 67.4487 19.7013C63.2814 19.7013 59.722 22.8576 59.0288 27.2852C58.6684 29.4938 59.1808 31.6057 60.4337 33.0784C61.5829 34.4326 63.2273 34.9969 65.1837 34.9969C68.5415 34.9969 70.4035 32.8378 70.4035 32.8378L70.2354 33.8857C70.172 34.2864 70.4806 34.6457 70.8825 34.6457H74.2795C74.8195 34.6457 75.2756 34.2541 75.3608 33.721L77.3989 20.8137C77.4634 20.4164 77.156 20.056 76.7529 20.056ZM71.4963 27.3957C71.1324 29.5502 69.4224 30.9965 67.2414 30.9965C66.1463 30.9965 65.2712 30.6453 64.7093 29.9797C64.1519 29.3187 63.94 28.378 64.1174 27.3301C64.4571 25.194 66.1959 23.7005 68.3434 23.7005C69.4143 23.7005 70.2849 24.0563 70.8583 24.7277C71.4329 25.4059 71.6609 26.3524 71.4963 27.3957Z" fill="#1D2939"/>
<path d="M96.8376 20.0559H93.048C92.6864 20.0559 92.3467 20.2355 92.1417 20.5361L86.915 28.2351L84.6995 20.8366C84.5602 20.3737 84.133 20.0559 83.6493 20.0559H79.9253C79.4728 20.0559 79.1584 20.4981 79.3023 20.9242L83.4766 33.174L79.5522 38.7139C79.2436 39.1503 79.5545 39.7503 80.0877 39.7503H83.8727C84.232 39.7503 84.5682 39.5752 84.772 39.2805L97.3765 21.0865C97.6782 20.6512 97.3685 20.0559 96.8376 20.0559Z" fill="#1D2939"/>
<path d="M109.384 12.7717H101.508C100.97 12.7717 100.512 13.1632 100.428 13.6952L97.2426 33.8894C97.1793 34.2878 97.4879 34.6471 97.8898 34.6471H101.932C102.307 34.6471 102.628 34.373 102.687 33.9999L103.591 28.2757C103.674 27.7426 104.133 27.3511 104.671 27.3511H107.163C112.352 27.3511 115.344 24.8408 116.127 19.8662C116.481 17.6898 116.141 15.9798 115.122 14.7823C114.004 13.4672 112.02 12.7717 109.384 12.7717ZM110.293 20.1472C109.863 22.973 107.704 22.973 105.615 22.973H104.428L105.263 17.6956C105.312 17.3766 105.587 17.1417 105.91 17.1417H106.455C107.876 17.1417 109.218 17.1417 109.912 17.9524C110.325 18.436 110.451 19.1546 110.293 20.1472Z" fill="#1D2939"/>
<path d="M132.924 20.0562H129.155C128.831 20.0562 128.556 20.2911 128.507 20.6101L128.341 21.6649L128.076 21.2826C127.259 20.0977 125.44 19.7015 123.623 19.7015C119.455 19.7015 115.897 22.8578 115.204 27.2854C114.845 29.494 115.355 31.6059 116.608 33.0787C117.759 34.4329 119.401 34.9971 121.358 34.9971C124.716 34.9971 126.578 32.838 126.578 32.838L126.409 33.8859C126.346 34.2866 126.655 34.6459 127.059 34.6459H130.455C130.992 34.6459 131.451 34.2544 131.535 33.7212L133.574 20.8139C133.636 20.4166 133.328 20.0562 132.924 20.0562ZM127.667 27.396C127.305 29.5504 125.593 30.9967 123.412 30.9967C122.319 30.9967 121.442 30.6455 120.88 29.98C120.323 29.319 120.113 28.3782 120.288 27.3303C120.63 25.1943 122.366 23.7007 124.514 23.7007C125.585 23.7007 126.456 24.0566 127.029 24.7279C127.606 25.4061 127.834 26.3527 127.667 27.396Z" fill="#1D2939"/>
<path d="M137.369 13.3255L134.137 33.8893C134.074 34.2877 134.382 34.647 134.784 34.647H138.034C138.574 34.647 139.032 34.2555 139.115 33.7223L142.303 13.5294C142.366 13.1309 142.057 12.7705 141.655 12.7705H138.017C137.695 12.7717 137.419 13.0066 137.369 13.3255Z" fill="#1D2939"/>
<path d="M8.36683 38.5713L8.96907 34.746L7.62756 34.7149H1.22168L5.67344 6.48781C5.68725 6.40259 5.73216 6.32314 5.7978 6.26671C5.86344 6.21029 5.9475 6.1792 6.03501 6.1792H16.8362C20.422 6.1792 22.8966 6.92538 24.1886 8.39817C24.7943 9.08908 25.1801 9.81108 25.3666 10.6056C25.5624 11.4393 25.5659 12.4354 25.3747 13.6502L25.3609 13.7389V14.5173L25.9666 14.8605C26.4767 15.1311 26.882 15.4408 27.1929 15.7955C27.7111 16.3862 28.0462 17.137 28.1879 18.0271C28.3341 18.9426 28.2857 20.0319 28.0462 21.2652C27.7699 22.6839 27.3231 23.9194 26.7197 24.9305C26.1646 25.862 25.4576 26.6347 24.6182 27.2335C23.8167 27.8024 22.8644 28.2342 21.7877 28.5105C20.7445 28.7823 19.555 28.9193 18.2503 28.9193H17.4097C16.8086 28.9193 16.2248 29.1358 15.7665 29.5239C15.307 29.92 15.003 30.4612 14.9097 31.0531L14.8464 31.3974L13.7824 38.1395L13.734 38.3871C13.7214 38.4654 13.6995 38.5045 13.6673 38.531C13.6385 38.5552 13.597 38.5713 13.5567 38.5713H8.36683Z" fill="#1D2939"/>
<path d="M26.5401 13.8286C26.5079 14.0347 26.471 14.2455 26.4296 14.4619C25.0052 21.7752 20.132 24.3016 13.908 24.3016H10.739C9.9779 24.3016 9.3365 24.8544 9.2179 25.6052L7.59541 35.8951L7.13596 38.8119C7.0588 39.3047 7.4388 39.7492 7.93626 39.7492H13.5568C14.2224 39.7492 14.7878 39.2656 14.8926 38.6092L14.9478 38.3236L16.0061 31.608L16.074 31.2395C16.1777 30.5809 16.7442 30.0972 17.4098 30.0972H18.2504C23.6959 30.0972 27.9588 27.8863 29.2047 21.4885C29.7252 18.8158 29.4558 16.5842 28.0786 15.0147C27.6617 14.5414 27.1447 14.1487 26.5401 13.8286Z" fill="#1D2939"/>
<path d="M25.05 13.2344C24.8323 13.1711 24.6078 13.1135 24.3775 13.0617C24.146 13.011 23.9088 12.9661 23.6647 12.927C22.8103 12.7888 21.8741 12.7231 20.8711 12.7231H12.4052C12.1967 12.7231 11.9987 12.7704 11.8213 12.8556C11.431 13.0433 11.1408 13.4129 11.0706 13.8654L9.26959 25.2724L9.21777 25.6051C9.33638 24.8544 9.97777 24.3016 10.7389 24.3016H13.9079C20.1318 24.3016 25.005 21.7741 26.4295 14.4619C26.4721 14.2454 26.5078 14.0347 26.54 13.8286C26.1796 13.6374 25.7892 13.4739 25.3689 13.3346C25.2653 13.3001 25.1582 13.2667 25.05 13.2344Z" fill="#1D2939"/>
<path d="M11.0707 13.8655C11.1409 13.413 11.4311 13.0433 11.8214 12.8568C11.9999 12.7716 12.1968 12.7244 12.4053 12.7244H20.8712C21.8742 12.7244 22.8103 12.79 23.6648 12.9282C23.9089 12.9673 24.1461 13.0122 24.3776 13.0629C24.6079 13.1147 24.8324 13.1723 25.05 13.2356C25.1583 13.2679 25.2654 13.3013 25.3702 13.3347C25.7905 13.474 26.1808 13.6387 26.5413 13.8287C26.965 11.1261 26.5378 9.28594 25.0765 7.6197C23.4656 5.78533 20.558 5 16.8374 5H6.03623C5.27623 5 4.62793 5.55273 4.51047 6.30467L0.0115023 34.8219C-0.0771644 35.3862 0.358108 35.8952 0.926957 35.8952H7.59538L9.26968 25.2724L11.0707 13.8655Z" fill="#1D2939"/>
</svg>
