<svg width="44" height="20" viewBox="0 0 44 20" fill="none" xmlns="http://www.w3.org/2000/svg">
<path d="M0 2.58824L14.3675 2.22222L14.2831 3.97386L10.3468 4.33987L8.60362 19.7124L5.51082 19.9739L4.105 4.91503L0.168699 5.28105L0 2.58824Z" fill="#101828"/>
<path d="M18.2027 20L16.7688 7.05882L22.7857 6.19608L20.9863 19.7647L18.2027 20ZM17.6404 4.15686C17.1343 3.66885 16.8813 3.09368 16.8813 2.43137C16.8813 1.76906 17.1343 1.20261 17.6404 0.732026C18.1653 0.244009 18.7838 0 19.4961 0C20.2084 0 20.8176 0.244009 21.3237 0.732026C21.8485 1.20261 22.1109 1.76906 22.1109 2.43137C22.1109 3.09368 21.8485 3.66885 21.3237 4.15686C20.8176 4.62745 20.2084 4.86275 19.4961 4.86275C18.7838 4.86275 18.1653 4.62745 17.6404 4.15686Z" fill="#FE5C36"/>
<path d="M39.417 20L38.1518 8.65359L33.1471 9.30719L31.7694 19.7647L28.9858 20L27.8612 9.98693L25.4713 10.3007L25.3026 7.60784L27.8331 7.42484C27.908 6.22222 28.1423 5.15033 28.536 4.20915C28.9296 3.26797 29.4263 2.5098 30.0261 1.93464C31.1508 0.819173 32.4723 0.174293 33.9906 0L35.0309 4.47059C33.3814 5.01089 32.1911 5.89978 31.4601 7.13726L44 6.19608L42.2006 19.7647L39.417 20ZM38.8547 4.15686C38.3486 3.66885 38.0956 3.09368 38.0956 2.43137C38.0956 1.76906 38.3486 1.20261 38.8547 0.732026C39.3795 0.244009 39.9981 0 40.7104 0C41.4227 0 42.0318 0.244009 42.5379 0.732026C43.0628 1.20261 43.3252 1.76906 43.3252 2.43137C43.3252 3.09368 43.0628 3.66885 42.5379 4.15686C42.0318 4.62745 41.4227 4.86275 40.7104 4.86275C39.9981 4.86275 39.3795 4.62745 38.8547 4.15686Z" fill="#101828"/>
</svg>
