<svg width="68" height="31" viewBox="0 0 68 31" fill="none" xmlns="http://www.w3.org/2000/svg">
<path d="M0 3.97059L22.041 3.40909L21.9116 6.09626L15.873 6.65775L13.1987 30.2406L8.4541 30.6417L6.29744 7.54011L0.258799 8.1016L0 3.97059Z" fill="#101828"/>
<path d="M27.9247 30.6818L25.7249 10.8289L34.9554 9.50535L32.1948 30.3209L27.9247 30.6818ZM27.062 6.37701C26.2856 5.62834 25.8974 4.74599 25.8974 3.72995C25.8974 2.7139 26.2856 1.84492 27.062 1.12299C27.8672 0.374331 28.8161 0 29.9088 0C31.0015 0 31.936 0.374331 32.7124 1.12299C33.5176 1.84492 33.9202 2.7139 33.9202 3.72995C33.9202 4.74599 33.5176 5.62834 32.7124 6.37701C31.936 7.09893 31.0015 7.45989 29.9088 7.45989C28.8161 7.45989 27.8672 7.09893 27.062 6.37701Z" fill="#FE5C36"/>
<path d="M60.4693 30.6818L58.5283 13.2754L50.8506 14.2781L48.7371 30.3209L44.4669 30.6818L42.7416 15.3209L39.0753 15.8021L38.8165 11.6711L42.6984 11.3904C42.8135 9.54545 43.1729 7.90107 43.7768 6.45722C44.3806 5.01337 45.1427 3.85027 46.0628 2.96791C47.7882 1.25669 49.8154 0.267381 52.1446 0L53.7405 6.85829C51.21 7.68717 49.3841 9.0508 48.2626 10.9492L67.5 9.50535L64.7395 30.3209L60.4693 30.6818ZM59.6066 6.37701C58.8302 5.62834 58.442 4.74599 58.442 3.72995C58.442 2.7139 58.8302 1.84492 59.6066 1.12299C60.4118 0.374331 61.3607 0 62.4534 0C63.5461 0 64.4807 0.374331 65.2571 1.12299C66.0622 1.84492 66.4648 2.7139 66.4648 3.72995C66.4648 4.74599 66.0622 5.62834 65.2571 6.37701C64.4807 7.09893 63.5461 7.45989 62.4534 7.45989C61.3607 7.45989 60.4118 7.09893 59.6066 6.37701Z" fill="#101828"/>
</svg>
