<svg width="132" height="48" viewBox="0 0 132 48" fill="none" xmlns="http://www.w3.org/2000/svg">
<g clip-path="url(#clip0_2742_23066)">
<path d="M21.8949 37.9727L13.2914 37.8153C10.5057 37.7605 7.71314 37.87 4.9822 37.3019C0.827612 36.4532 0.5333 32.2918 0.225299 28.8011C-0.199057 23.8936 -0.0347901 18.8971 0.766012 14.0307C1.21775 11.2998 2.99731 9.6708 5.74878 9.49285C15.0367 8.84947 24.3863 8.92475 33.6537 9.22591C34.6324 9.25329 35.618 9.40387 36.5831 9.57498C41.3468 10.41 41.4632 15.1258 41.7712 19.0956C42.0792 23.1065 41.9491 27.1379 41.3605 31.1214C40.8883 34.4204 39.9848 37.1856 36.1724 37.4525C31.395 37.8016 26.7271 38.0822 21.9359 37.9932C21.9359 37.9727 21.9086 37.9727 21.8949 37.9727ZM16.8368 29.6224C20.437 27.5554 23.9687 25.5226 27.5484 23.4692C23.9414 21.4022 20.4165 19.3694 16.8368 17.3161V29.6224Z" fill="#1D2939"/>
<path d="M111.004 34.2216C110.839 34.8923 110.696 35.4194 110.552 35.9806H107.184V10.0059H111.113V19.5881C111.319 19.328 111.421 19.2185 111.51 19.1022C112.181 18.1782 113.05 17.5758 114.173 17.3431C115.959 16.9941 117.485 17.7812 118.026 19.4991C118.375 20.5669 118.601 21.7099 118.628 22.8255C118.683 25.6934 118.642 28.5544 118.539 31.4222C118.498 32.2983 118.231 33.1949 117.896 34.0162C116.794 36.7266 113.194 37.1373 111.408 34.7897C111.298 34.6459 111.195 34.4885 111.004 34.2216ZM111.195 31.826C111.195 32.5994 111.606 33.0717 112.379 33.2497C113.139 33.4276 113.755 33.1333 114.063 32.4283C114.193 32.134 114.323 31.826 114.33 31.518C114.405 28.616 114.474 25.7139 114.494 22.805C114.494 22.2643 114.364 21.703 114.2 21.176C113.892 20.2246 113.043 19.944 112.208 20.4984C111.579 20.9228 111.195 21.5251 111.195 22.3259V31.826ZM100.518 17.7127H104.631V35.9943H101.421C101.305 35.303 101.189 34.5912 101.052 33.7561C100.833 34.0778 100.703 34.2832 100.566 34.4885C99.4981 36.0285 97.9855 36.5555 96.1991 36.2749C94.6728 36.0285 93.7556 34.8513 93.5503 32.9211C93.4887 32.3462 93.4613 31.7644 93.4613 31.1895C93.4476 26.9117 93.4613 22.6202 93.4613 18.3424V17.699H97.6228V18.4451C97.6228 22.5791 97.6091 26.7064 97.6364 30.8404C97.6364 31.429 97.698 32.0382 97.8007 32.6268C97.9171 33.2291 98.3551 33.4481 98.9437 33.4071C99.8951 33.3318 100.552 32.6268 100.552 31.6823V18.5204C100.518 18.2534 100.518 18.007 100.518 17.7127ZM72.1956 17.699H76.3296V18.4725C76.3296 22.586 76.3159 26.6927 76.3433 30.7925C76.3433 31.3811 76.3981 31.9903 76.5213 32.5652C76.6787 33.2428 77.0757 33.4618 77.7533 33.3729C78.691 33.2428 79.259 32.5926 79.2659 31.6412V17.7264H83.3794V35.9943H80.183C80.0667 35.3167 79.9503 34.6186 79.7998 33.7356C79.5944 34.0436 79.4781 34.2216 79.3617 34.4064C78.294 35.9738 76.795 36.5487 74.9676 36.2681C73.5029 36.049 72.6062 34.9676 72.3324 33.1949C72.2572 32.6405 72.2024 32.0929 72.2024 31.5385C72.1887 27.0965 72.1887 22.6339 72.1887 18.1918L72.1956 17.699ZM70.0738 27.4592C70.0601 28.0752 70.019 28.6912 69.9848 29.3072C69.8274 31.1553 69.7521 33.7767 68.26 35.125C67.3086 35.9738 66.104 36.2818 64.8583 36.3228C64.3039 36.3365 63.7426 36.3365 63.1882 36.2612C60.5668 35.8642 59.3485 34.7075 58.9104 31.826C58.4108 28.4996 58.3697 25.1184 58.9652 21.792C59.5812 18.3493 61.703 17.1309 65.002 17.3568C68.082 17.5758 69.4578 19.595 69.8205 22.4696C70.019 24.1191 70.1148 25.7892 70.0738 27.4592ZM65.885 26.8296C65.885 25.6591 65.9123 24.4819 65.8713 23.3115C65.8439 22.6339 65.7549 21.9494 65.6112 21.2787C65.4469 20.5053 64.9541 20.1357 64.3381 20.1494C63.7358 20.163 63.3114 20.5326 63.0924 21.2513C63.0171 21.5182 62.935 21.792 62.935 22.059C62.935 23.8933 62.9213 25.7344 62.9076 27.5688C62.8939 29.2799 62.6749 31.0731 63.2156 32.7089C63.3799 33.2086 63.8042 33.4824 64.3586 33.4824C64.8994 33.4824 65.2553 33.2154 65.4538 32.7363C65.6112 32.3667 65.7481 31.9629 65.7481 31.5659C65.796 29.9917 65.885 28.4106 65.885 26.8296ZM52.8736 23.3868C53.2364 21.6141 53.5786 19.8824 53.9551 18.1439C54.4273 15.9332 54.9543 13.7224 55.4198 11.5048C55.5361 10.9641 55.7551 10.834 56.2685 10.8477C57.3704 10.8888 58.4929 10.8614 59.6702 10.8614C59.2869 12.2714 58.9104 13.6129 58.5408 14.9339C57.3704 19.0816 56.2 23.2431 55.0433 27.4045C54.9543 27.7262 54.9133 28.0752 54.9133 28.4175C54.8996 30.6898 54.9133 32.9553 54.9133 35.2277V35.9669H50.8956C50.8819 35.7616 50.8545 35.5562 50.8545 35.3509C50.8545 34.0641 50.7518 32.7705 50.8682 31.4975C51.1625 28.438 50.1906 25.6249 49.4035 22.7776C48.3631 19.0132 47.3091 15.235 46.2687 11.4706C46.214 11.2926 46.1934 11.101 46.1387 10.882H50.2385C51.1009 15.0365 51.9702 19.1911 52.8736 23.3868ZM131.482 28.1574H124.556C124.631 29.5468 124.658 30.8678 124.802 32.1751C124.905 33.0854 125.404 33.4755 126.192 33.4824C127.013 33.4961 127.492 33.0854 127.684 32.1819C127.745 31.8876 127.786 31.5933 127.814 31.2921C127.841 31.0252 127.855 30.7377 127.875 30.3545C129.046 30.416 130.189 30.4845 131.318 30.5324C131.975 32.4831 130.791 34.9882 128.799 35.7616C127.232 36.3776 125.623 36.3776 124.022 35.9053C122.838 35.5562 121.955 34.8034 121.558 33.6466C121.188 32.5652 120.839 31.4359 120.764 30.3065C120.559 27.5208 120.483 24.7078 120.908 21.9152C120.983 21.4498 121.113 21.0049 121.257 20.5532C121.832 18.6915 123.084 17.5485 125.021 17.3568C126.075 17.2541 127.163 17.2952 128.204 17.4732C129.888 17.7675 130.784 18.979 131.174 20.5669C131.352 21.3129 131.482 22.0795 131.51 22.8392C131.517 24.5846 131.482 26.3162 131.482 28.1574ZM127.547 25.755C127.547 24.3792 127.56 23.0856 127.533 21.7852C127.533 21.4772 127.417 21.1555 127.3 20.8612C127.068 20.2862 126.582 20.1288 126 20.1288C125.418 20.1288 125.049 20.4231 124.905 20.9502C124.467 22.5312 124.61 24.1465 124.624 25.7687C125.671 25.755 126.623 25.755 127.547 25.755Z" fill="#1D2939"/>
<path d="M86.5551 14.2152H82.4827V10.9161H94.6384V14.1946H90.5934V35.9669H86.562L86.5551 14.2152Z" fill="#1D2939"/>
</g>
<defs>
<clipPath id="clip0_2742_23066">
<rect width="132" height="48" fill="white"/>
</clipPath>
</defs>
</svg>
